<svg fill="#000000" xmlns="http://www.w3.org/2000/svg"  viewBox="0 0 26 26" width="208px" height="208px"><path d="M 13 0.15625 C 5.902344 0.15625 0.15625 5.902344 0.15625 13 C 0.15625 20.097656 5.902344 25.84375 13 25.84375 C 20.097656 25.84375 25.84375 20.097656 25.84375 13 C 25.84375 5.902344 20.097656 0.15625 13 0.15625 Z M 11.96875 3 C 12.007813 2.996094 12.054688 3.003906 12.09375 3 L 12.09375 3.5 C 12.09375 4 12.5 4.40625 13 4.40625 C 13.5 4.40625 13.90625 4 13.90625 3.5 L 13.90625 3 C 18.726563 3.429688 22.570313 7.273438 23 12.09375 L 22.5 12.09375 C 22.46875 12.09375 22.4375 12.09375 22.40625 12.09375 C 21.90625 12.121094 21.519531 12.546875 21.546875 13.046875 C 21.574219 13.546875 22 13.933594 22.5 13.90625 L 23 13.90625 C 22.570313 18.726563 18.726563 22.570313 13.90625 23 L 13.90625 22.5 C 13.910156 22.242188 13.804688 21.992188 13.613281 21.820313 C 13.421875 21.644531 13.164063 21.5625 12.90625 21.59375 C 12.441406 21.636719 12.085938 22.03125 12.09375 22.5 L 12.09375 23 C 7.273438 22.570313 3.429688 18.726563 3 13.90625 L 3.5 13.90625 C 4 13.90625 4.40625 13.5 4.40625 13 C 4.40625 12.5 4 12.09375 3.5 12.09375 L 3 12.09375 C 3.429688 7.3125 7.203125 3.484375 11.96875 3 Z M 13 5.4375 C 12.507813 5.4375 12.296875 5.875 12.28125 6.125 L 12 11.40625 C 11.464844 11.742188 11.09375 12.320313 11.09375 13 C 11.09375 14.046875 11.953125 14.90625 13 14.90625 C 13.054688 14.90625 13.101563 14.878906 13.15625 14.875 L 17.40625 18.6875 C 17.601563 18.859375 18.109375 19.015625 18.5625 18.5625 C 19.019531 18.109375 18.886719 17.570313 18.71875 17.375 L 14.90625 13.03125 C 14.90625 13.019531 14.90625 13.011719 14.90625 13 C 14.90625 12.296875 14.507813 11.703125 13.9375 11.375 L 13.71875 6.125 C 13.707031 5.875 13.488281 5.4375 13 5.4375 Z"/></svg>