<?xml version="1.0" encoding="UTF-8"?>
<svg xmlns="http://www.w3.org/2000/svg" xmlns:xlink="http://www.w3.org/1999/xlink" viewBox="0 0 50 50" width="50px" height="50px">
<g id="surface47651523">
<path style=" stroke:none;fill-rule:nonzero;fill:rgb(20%,20%,20%);fill-opacity:1;" d="M 25 2 C 12.308594 2 2 12.308594 2 25 C 2 37.691406 12.308594 48 25 48 C 37.691406 48 48 37.691406 48 25 C 48 12.308594 37.691406 2 25 2 Z M 25 4 C 36.609375 4 46 13.390625 46 25 C 46 36.609375 36.609375 46 25 46 C 13.390625 46 4 36.609375 4 25 C 4 13.390625 13.390625 4 25 4 Z M 25 11 C 23.34375 11 22 12.34375 22 14 C 22 15.65625 23.34375 17 25 17 C 26.65625 17 28 15.65625 28 14 C 28 12.34375 26.65625 11 25 11 Z M 21 21 L 21 23 L 23 23 L 23 36 L 21 36 L 21 38 L 29 38 L 29 36 L 27 36 L 27 21 Z M 21 21 "/>
</g>
</svg>
