<?xml version="1.0" encoding="UTF-8"?>
<svg xmlns="http://www.w3.org/2000/svg" xmlns:xlink="http://www.w3.org/1999/xlink" viewBox="0 0 60 60" width="60px" height="60px">
<g id="surface49247471">
<path style=" stroke:none;fill-rule:nonzero;fill:rgb(20%,20%,20%);fill-opacity:1;" d="M 36 38 L 36 34 C 36.898438 33.554688 39.472656 30.488281 39.742188 28.097656 C 40.453125 28.042969 41.5625 27.390625 41.890625 24.824219 C 42.066406 23.449219 41.367188 22.675781 40.945312 22.429688 C 40.945312 22.429688 42 20.425781 42 18.003906 C 42 13.144531 40.09375 9.003906 36 9.003906 C 36 9.003906 34.578125 6.003906 30 6.003906 C 21.515625 6.003906 18 11.445312 18 18.003906 C 18 20.210938 19.054688 22.429688 19.054688 22.429688 C 18.632812 22.675781 17.933594 23.449219 18.109375 24.824219 C 18.4375 27.390625 19.546875 28.042969 20.257812 28.097656 C 20.527344 30.488281 23.101562 33.554688 24 34 L 24 38 C 22 44 6 40 6 54 L 54 54 C 54 40 38 44 36 38 Z M 36 38 "/>
</g>
</svg>
